<?xml version="1.0" encoding="UTF-8" standalone="no"?>
<!DOCTYPE svg PUBLIC "-//W3C//DTD SVG 1.1//EN" "http://www.w3.org/Graphics/SVG/1.1/DTD/svg11.dtd">
<svg width="100%" height="100%" viewBox="0 0 91 20" version="1.1" xmlns="http://www.w3.org/2000/svg" xmlns:xlink="http://www.w3.org/1999/xlink" xml:space="preserve" xmlns:serif="http://www.serif.com/" style="fill-rule:evenodd;clip-rule:evenodd;stroke-linejoin:round;stroke-miterlimit:2;">
    <g transform="matrix(2.06442,0,0,2.06442,6.46324,-3.85449)">
        <text x="6.088px" y="10.951px" style="font-family:'Amplitude-Black';font-weight:500;font-size:12px;fill:white;">m<tspan x="15.412px 21.244px 26.668px 32.74px 35.608px " y="10.951px 10.951px 10.951px 10.951px 10.951px ">oebis</tspan></text>
    </g>
    <g transform="matrix(0.0431082,0,0,0.043092,-34.7613,-3.10146)">
        <path d="M1024.51,80.305C1008.87,68.947 994.028,68.517 979.827,83.272C916.208,155.275 857.072,234.13 809.916,312.787C804.823,321.529 805.224,329.836 811.12,337.708C932.887,427.608 1019.52,490.181 1050.9,509.77C1060.79,518.236 1070.87,516.822 1081.14,505.527L1247.85,277.126C1251.98,270.964 1252.34,262.412 1237.97,251.571L1024.51,80.305ZM1029.51,177.451C1090.56,177.451 1140.05,227.317 1140.05,288.83C1140.05,350.344 1090.56,400.21 1029.51,400.21C968.453,400.21 918.962,350.344 918.962,288.83C918.962,227.317 968.453,177.451 1029.51,177.451Z" style="fill:white;"/>
    </g>
</svg>
