<?xml version="1.0" encoding="UTF-8" standalone="no"?>
<!DOCTYPE svg PUBLIC "-//W3C//DTD SVG 1.1//EN" "http://www.w3.org/Graphics/SVG/1.1/DTD/svg11.dtd">
<svg width="100%" height="100%" viewBox="0 0 91 20" version="1.1" xmlns="http://www.w3.org/2000/svg" xmlns:xlink="http://www.w3.org/1999/xlink" xml:space="preserve" xmlns:serif="http://www.serif.com/" style="fill-rule:evenodd;clip-rule:evenodd;stroke-linejoin:round;stroke-miterlimit:2;">
    <g transform="matrix(2.06442,0,0,2.06442,-13.8071,-3.85449)">
        <g transform="matrix(12,0,0,12,6.08811,10.9511)">
            <path d="M0.555,-0.531C0.567,-0.536 0.579,-0.541 0.592,-0.544C0.605,-0.547 0.619,-0.548 0.635,-0.548C0.686,-0.548 0.724,-0.532 0.747,-0.499C0.77,-0.466 0.781,-0.422 0.781,-0.368L0.781,-0L0.601,-0L0.601,-0.372C0.601,-0.393 0.587,-0.404 0.56,-0.404C0.551,-0.404 0.542,-0.403 0.533,-0.401C0.524,-0.399 0.515,-0.396 0.505,-0.393L0.505,-0L0.326,-0L0.326,-0.372C0.326,-0.393 0.312,-0.404 0.284,-0.404C0.275,-0.404 0.266,-0.403 0.257,-0.402C0.248,-0.4 0.239,-0.397 0.23,-0.394L0.23,-0L0.05,-0L0.05,-0.535L0.181,-0.535L0.227,-0.46L0.285,-0.532C0.296,-0.537 0.308,-0.541 0.322,-0.544C0.335,-0.547 0.35,-0.548 0.365,-0.548C0.389,-0.548 0.408,-0.546 0.423,-0.543C0.437,-0.539 0.449,-0.535 0.458,-0.531L0.498,-0.458L0.555,-0.531Z" style="fill:white;fill-rule:nonzero;"/>
        </g>
        <g transform="matrix(12,0,0,12,15.4121,10.9511)">
            <path d="M0.268,0.014C0.19,0.014 0.13,-0.011 0.088,-0.061C0.045,-0.111 0.024,-0.18 0.024,-0.267C0.024,-0.356 0.045,-0.425 0.087,-0.474C0.129,-0.523 0.189,-0.548 0.268,-0.548C0.345,-0.548 0.405,-0.523 0.448,-0.474C0.491,-0.425 0.512,-0.357 0.512,-0.27C0.512,-0.226 0.507,-0.186 0.496,-0.151C0.485,-0.116 0.468,-0.086 0.448,-0.062C0.427,-0.037 0.401,-0.019 0.371,-0.006C0.34,0.008 0.306,0.014 0.268,0.014ZM0.267,-0.117C0.278,-0.117 0.288,-0.119 0.296,-0.122C0.303,-0.125 0.309,-0.132 0.314,-0.142C0.318,-0.151 0.321,-0.165 0.323,-0.182C0.324,-0.199 0.325,-0.221 0.325,-0.248L0.325,-0.286C0.325,-0.312 0.324,-0.333 0.323,-0.35C0.321,-0.366 0.318,-0.379 0.314,-0.388C0.309,-0.397 0.303,-0.403 0.296,-0.406C0.288,-0.409 0.278,-0.41 0.267,-0.41C0.256,-0.41 0.246,-0.409 0.239,-0.406C0.232,-0.403 0.226,-0.397 0.222,-0.388C0.217,-0.379 0.214,-0.366 0.213,-0.351C0.211,-0.335 0.21,-0.314 0.21,-0.288L0.21,-0.249C0.21,-0.221 0.211,-0.199 0.213,-0.182C0.214,-0.165 0.217,-0.151 0.222,-0.142C0.226,-0.132 0.232,-0.125 0.239,-0.122C0.246,-0.119 0.256,-0.117 0.267,-0.117Z" style="fill:white;fill-rule:nonzero;"/>
        </g>
        <g transform="matrix(12,0,0,12,21.2441,10.9511)">
            <path d="M0.21,-0.212C0.211,-0.195 0.212,-0.18 0.215,-0.169C0.217,-0.157 0.221,-0.148 0.228,-0.141C0.234,-0.134 0.242,-0.13 0.253,-0.127C0.263,-0.124 0.276,-0.123 0.293,-0.123C0.322,-0.123 0.349,-0.126 0.374,-0.132C0.399,-0.138 0.421,-0.144 0.44,-0.149L0.459,-0.027C0.442,-0.018 0.419,-0.009 0.388,-0C0.357,0.009 0.322,0.014 0.281,0.014C0.195,0.014 0.131,-0.011 0.088,-0.06C0.045,-0.109 0.024,-0.177 0.024,-0.266C0.024,-0.309 0.029,-0.349 0.04,-0.384C0.051,-0.419 0.066,-0.448 0.087,-0.473C0.107,-0.497 0.132,-0.516 0.161,-0.529C0.19,-0.542 0.224,-0.548 0.262,-0.548C0.303,-0.548 0.337,-0.542 0.365,-0.53C0.392,-0.518 0.414,-0.501 0.431,-0.479C0.448,-0.456 0.46,-0.429 0.467,-0.397C0.474,-0.364 0.478,-0.327 0.478,-0.286L0.478,-0.212L0.21,-0.212ZM0.317,-0.315L0.317,-0.345C0.317,-0.377 0.313,-0.399 0.305,-0.41C0.296,-0.421 0.282,-0.426 0.263,-0.426C0.252,-0.426 0.244,-0.424 0.237,-0.421C0.23,-0.418 0.224,-0.412 0.22,-0.403C0.215,-0.394 0.212,-0.383 0.21,-0.369C0.208,-0.355 0.207,-0.337 0.206,-0.315L0.317,-0.315Z" style="fill:white;fill-rule:nonzero;"/>
        </g>
        <g transform="matrix(12,0,0,12,26.6681,10.9511)">
            <path d="M0.143,0.003L0.05,0.003L0.05,-0.718L0.23,-0.718L0.23,-0.503C0.243,-0.517 0.259,-0.528 0.278,-0.536C0.296,-0.544 0.318,-0.548 0.343,-0.548C0.409,-0.548 0.457,-0.524 0.486,-0.475C0.515,-0.426 0.53,-0.355 0.53,-0.26C0.53,-0.218 0.526,-0.18 0.519,-0.147C0.512,-0.113 0.5,-0.084 0.485,-0.06C0.47,-0.036 0.45,-0.018 0.425,-0.005C0.4,0.008 0.37,0.014 0.335,0.014C0.313,0.014 0.294,0.012 0.277,0.008C0.26,0.003 0.246,-0.002 0.235,-0.007L0.187,-0.077L0.143,0.003ZM0.23,-0.113C0.238,-0.109 0.247,-0.106 0.256,-0.104C0.265,-0.101 0.276,-0.1 0.287,-0.1C0.307,-0.1 0.322,-0.108 0.331,-0.123C0.34,-0.138 0.345,-0.165 0.345,-0.203L0.345,-0.301C0.345,-0.342 0.341,-0.369 0.332,-0.383C0.323,-0.397 0.308,-0.404 0.287,-0.404C0.274,-0.404 0.264,-0.402 0.255,-0.398C0.245,-0.394 0.237,-0.389 0.23,-0.384L0.23,-0.113Z" style="fill:white;fill-rule:nonzero;"/>
        </g>
        <g transform="matrix(12,0,0,12,32.7401,10.9511)">
            <path d="M0.144,-0.574C0.116,-0.574 0.093,-0.582 0.074,-0.598C0.055,-0.613 0.046,-0.636 0.046,-0.665C0.046,-0.694 0.055,-0.716 0.074,-0.733C0.093,-0.749 0.116,-0.757 0.144,-0.757C0.172,-0.757 0.196,-0.749 0.215,-0.733C0.234,-0.716 0.243,-0.694 0.243,-0.665C0.243,-0.636 0.234,-0.613 0.215,-0.598C0.196,-0.582 0.172,-0.574 0.144,-0.574ZM0.054,-0.535L0.234,-0.535L0.234,-0L0.054,-0L0.054,-0.535Z" style="fill:white;fill-rule:nonzero;"/>
        </g>
        <g transform="matrix(12,0,0,12,35.6081,10.9511)">
            <path d="M0.212,0.014C0.168,0.014 0.131,0.01 0.101,0.003C0.071,-0.004 0.048,-0.012 0.032,-0.019L0.047,-0.142C0.063,-0.137 0.082,-0.131 0.105,-0.124C0.128,-0.117 0.153,-0.114 0.182,-0.114C0.215,-0.114 0.238,-0.117 0.25,-0.123C0.261,-0.128 0.267,-0.138 0.267,-0.152C0.267,-0.16 0.265,-0.166 0.261,-0.17C0.257,-0.174 0.25,-0.177 0.241,-0.179C0.232,-0.181 0.22,-0.183 0.205,-0.185C0.19,-0.187 0.172,-0.19 0.151,-0.194C0.132,-0.197 0.115,-0.203 0.1,-0.211C0.084,-0.218 0.07,-0.229 0.059,-0.242C0.048,-0.255 0.039,-0.271 0.032,-0.291C0.025,-0.311 0.022,-0.335 0.022,-0.364C0.022,-0.397 0.027,-0.425 0.038,-0.448C0.048,-0.471 0.063,-0.49 0.082,-0.505C0.1,-0.52 0.123,-0.531 0.15,-0.538C0.176,-0.545 0.205,-0.548 0.238,-0.548C0.28,-0.548 0.315,-0.545 0.344,-0.538C0.373,-0.531 0.395,-0.524 0.41,-0.517L0.385,-0.386C0.365,-0.392 0.345,-0.397 0.326,-0.401C0.306,-0.404 0.284,-0.406 0.259,-0.406C0.228,-0.406 0.208,-0.404 0.197,-0.399C0.186,-0.394 0.181,-0.385 0.181,-0.372C0.181,-0.365 0.183,-0.36 0.187,-0.356C0.19,-0.352 0.197,-0.349 0.206,-0.347C0.215,-0.344 0.226,-0.342 0.241,-0.34C0.255,-0.337 0.272,-0.334 0.293,-0.331C0.313,-0.327 0.332,-0.322 0.349,-0.315C0.366,-0.308 0.38,-0.299 0.393,-0.287C0.406,-0.274 0.416,-0.259 0.423,-0.24C0.43,-0.221 0.433,-0.197 0.433,-0.168C0.433,-0.11 0.415,-0.065 0.379,-0.034C0.342,-0.002 0.287,0.014 0.212,0.014Z" style="fill:white;fill-rule:nonzero;"/>
        </g>
    </g>
</svg>
